<?xml version="1.0" encoding="UTF-8"?> <svg xmlns="http://www.w3.org/2000/svg" width="250" height="250" viewBox="0 0 250 250" fill="none"><path d="M180.845 164.048C180.508 164.235 180.134 164.459 179.798 164.646L181.443 168.01C182.003 167.711 182.564 167.374 183.087 167.038C182.593 165.874 181.823 164.848 180.845 164.048ZM167.987 168.533C168.584 168.784 169.195 168.996 169.819 169.168L170.753 165.543L169.632 165.206C168.815 166.161 168.25 167.304 167.987 168.533Z" fill="white"></path><path d="M151.614 225.783H80.6033C77.1352 225.78 73.8095 224.4 71.3566 221.948C68.9045 219.495 67.5247 216.17 67.5217 212.701V55.7223C67.5248 52.2542 68.9046 48.9284 71.3566 46.4756C73.8095 44.0235 77.135 42.6437 80.6033 42.6407H192.727C196.196 42.6438 199.521 44.0236 201.974 46.4756C204.427 48.9284 205.806 52.254 205.809 55.7223V195.881H202.071V55.7223C202.069 53.2445 201.084 50.8696 199.332 49.1176C197.58 47.3656 195.205 46.3807 192.727 46.3783H80.6033C78.1255 46.3806 75.7506 47.3657 73.9986 49.1176C72.2466 50.8696 71.2617 53.2445 71.2593 55.7223V212.701C71.2617 215.179 72.2467 217.554 73.9986 219.306C75.7506 221.058 78.1255 222.043 80.6033 222.045H151.614V225.783Z" fill="#106A94"></path><path d="M65.6508 37.6792C65.6134 38.4796 65.0738 39.1695 64.3053 39.3985L57.3161 41.342L56.9797 48.5557C56.9454 49.3577 56.4043 50.0491 55.6342 50.275C55.4628 50.3178 55.2876 50.3435 55.1109 50.3497C54.4887 50.3365 53.9141 50.0141 53.5785 49.4901L49.5794 43.4724L42.5902 45.416C41.8068 45.6301 40.976 45.3124 40.5346 44.6311C40.09 43.9544 40.1196 43.0707 40.6093 42.426L45.1319 36.7823L41.1328 30.7647C40.6882 30.0881 40.7178 29.2043 41.2075 28.5596C41.723 27.9352 42.5726 27.6961 43.3381 27.9616L50.1405 30.5032L54.6256 24.8595C55.1317 24.2218 55.989 23.9804 56.7529 24.2607C57.5176 24.541 58.0159 25.2792 57.9895 26.0929L57.6531 33.3066L64.4555 35.8481C65.2139 36.1285 65.6998 36.8721 65.6515 37.6796L65.6508 37.6792Z" fill="#106A94"></path><path d="M57.5419 80.7741C57.1619 81.4882 56.3482 81.8565 55.5609 81.6712L48.4595 80.2509L44.9089 86.53C44.5749 87.1257 43.9473 87.4964 43.2644 87.5018C43.1367 87.4948 43.0113 87.4699 42.8906 87.4271C42.0971 87.2713 41.4937 86.6227 41.3956 85.8199L40.5733 78.6437L33.5091 77.2234C32.7024 77.0654 32.0951 76.3973 32.0141 75.5789C31.9144 74.7737 32.3552 73.999 33.098 73.6727L39.6762 70.6826L38.8539 63.5065C38.7612 62.7029 39.1996 61.932 39.9378 61.6003C40.6736 61.2546 41.5473 61.4204 42.1056 62.0114L47.0018 67.3561L53.5799 64.366C54.3158 64.0203 55.1894 64.1861 55.7477 64.7771C56.2827 65.39 56.373 66.2745 55.972 66.9822L52.4214 73.2614L57.3175 78.5688C57.8525 79.1816 57.9428 80.0661 57.5418 80.7739L57.5419 80.7741Z" fill="#E64C4C"></path><path d="M98.6553 19.0666L93.3107 23.9627L96.3382 30.5409C96.6707 31.2728 96.4893 32.1356 95.8897 32.6714C95.3073 33.2344 94.4219 33.3411 93.7219 32.933L87.4053 29.3824L82.0606 34.2786C81.704 34.5791 81.2562 34.7504 80.7898 34.7644C80.4605 34.766 80.1365 34.6749 79.8554 34.5028C79.1741 34.0932 78.8167 33.3045 78.9584 32.5219L80.4161 25.4205L74.0994 21.8698C73.3916 21.4836 73.0257 20.6754 73.2024 19.8889C73.3324 19.0814 73.9943 18.4655 74.8096 18.3939L82.0232 17.5716L83.4435 10.4702C83.6008 9.68374 84.2533 9.09272 85.0507 9.01253C85.8644 8.91909 86.6462 9.35515 86.9942 10.0964L89.9843 16.6746L97.198 15.8523C98 15.7698 98.7654 16.2051 99.1041 16.9362C99.4366 17.6682 99.2552 18.5309 98.6556 19.0668L98.6553 19.0666Z" fill="#38B1EA"></path><path d="M190.861 152.873C190.886 158.619 187.948 163.973 183.087 167.038C182.564 167.375 182.003 167.711 181.443 168.01L179.798 164.646C180.134 164.459 180.508 164.235 180.845 164.048C184.24 161.971 186.504 158.46 186.993 154.509C187.483 150.559 186.145 146.601 183.359 143.758C180.573 140.915 176.643 139.496 172.684 139.906C168.724 140.314 165.167 142.506 163.022 145.859C160.876 149.211 160.376 153.359 161.662 157.126C162.949 160.893 165.883 163.868 169.632 165.207L170.753 165.543L169.819 169.169C169.195 168.997 168.584 168.784 167.987 168.533C164.163 167.053 161.012 164.226 159.128 160.583C157.244 156.941 156.756 152.736 157.756 148.76C158.757 144.782 161.177 141.309 164.56 138.992C167.945 136.676 172.058 135.677 176.127 136.182C180.197 136.687 183.941 138.664 186.654 141.738C189.368 144.812 190.865 148.772 190.861 152.873L190.861 152.873Z" fill="#38B1EA"></path><path d="M172.201 158.516C171.705 158.518 171.228 158.321 170.877 157.969L167.139 154.231L169.785 151.587L172.201 154.003L178.351 147.849L180.997 150.494L173.522 157.969H173.523C173.173 158.32 172.697 158.517 172.201 158.516H172.201Z" fill="#38B1EA"></path><path d="M180.845 164.048C180.508 164.235 180.134 164.459 179.798 164.646L181.443 168.01C182.003 167.711 182.564 167.374 183.087 167.038C182.593 165.874 181.823 164.848 180.845 164.048ZM167.987 168.533C168.584 168.784 169.195 168.996 169.819 169.168L170.753 165.543L169.632 165.206C168.815 166.161 168.25 167.304 167.987 168.533Z" fill="white"></path><path d="M216.725 219.205L213.249 236.697C213.028 237.826 212.424 238.845 211.539 239.581C210.653 240.316 209.541 240.723 208.391 240.733L175.837 240.659C175.59 240.702 175.34 240.727 175.089 240.733C172.703 240.696 170.458 239.6 168.959 237.743L155.28 220.849C153.782 219.004 153.169 216.595 153.6 214.259C154.032 211.922 155.465 209.891 157.522 208.702C159.197 207.791 161.135 207.487 163.008 207.841C164.882 208.195 166.575 209.187 167.801 210.646V170.318C167.789 169.714 167.852 169.111 167.988 168.523C168.584 168.774 169.195 168.987 169.819 169.159L170.754 165.533L169.632 165.197C169.923 164.794 170.276 164.441 170.679 164.15C172.474 162.618 174.851 161.949 177.182 162.319C178.537 162.548 179.803 163.143 180.845 164.038C180.509 164.225 180.135 164.449 179.799 164.636L181.443 168C182.004 167.701 182.564 167.365 183.088 167.028C183.631 168.16 183.912 169.399 183.91 170.654V195.248C183.905 195.645 184.165 195.996 184.545 196.108L206.821 202.686C210.24 203.701 213.154 205.96 214.988 209.019C216.822 212.078 217.442 215.712 216.726 219.206L216.725 219.205Z" fill="#083A51"></path><path d="M159.089 203.367H80.6034C79.5717 203.367 78.7346 202.53 78.7346 201.499C78.7346 200.467 79.5717 199.63 80.6034 199.63H159.089C159.595 199.613 160.085 199.803 160.448 200.155C160.812 200.507 161.017 200.992 161.017 201.498C161.017 202.003 160.812 202.487 160.448 202.839C160.085 203.192 159.595 203.381 159.089 203.366V203.367Z" fill="#424647"></path><path d="M164.944 128.739C164.104 128.738 163.368 128.178 163.144 127.368L161.148 120.166C160.873 119.171 161.456 118.141 162.45 117.865C163.445 117.589 164.475 118.172 164.751 119.168L166.748 126.371V126.37C166.88 126.848 166.817 127.358 166.573 127.79C166.328 128.221 165.922 128.537 165.444 128.67C165.281 128.716 165.113 128.74 164.944 128.739L164.944 128.739Z" fill="#38B1EA"></path><path d="M158.76 136.272C158.601 136.272 158.443 136.252 158.289 136.212L151.051 134.343C150.052 134.084 149.452 133.064 149.711 132.065C149.97 131.066 150.99 130.465 151.989 130.725L159.227 132.595C160.14 132.829 160.735 133.706 160.616 134.641C160.498 135.575 159.702 136.275 158.76 136.274L158.76 136.272Z" fill="#38B1EA"></path><path d="M174.127 132.01C173.375 132.009 172.697 131.556 172.407 130.862C172.116 130.169 172.269 129.369 172.795 128.831L178.037 123.499H178.036C178.759 122.762 179.943 122.751 180.679 123.474C181.416 124.197 181.427 125.381 180.704 126.117L175.463 131.45C175.111 131.809 174.629 132.01 174.127 132.01L174.127 132.01Z" fill="#38B1EA"></path><path d="M112.372 61.3386C104.964 61.3239 97.8543 64.2516 92.6046 69.478C87.3548 74.7037 84.3958 81.8011 84.3773 89.2085C84.3594 96.616 87.284 103.728 92.5073 108.98C97.7314 114.232 104.827 117.194 112.235 117.216C119.642 117.237 126.755 114.316 132.01 109.094C137.264 103.872 140.229 96.778 140.254 89.3706C140.289 81.9514 137.368 74.8235 132.136 69.5629C126.903 64.303 119.791 61.3434 112.372 61.3386ZM105.457 84.2865C105.457 81.8298 106.768 79.5592 108.896 78.3304C111.024 77.1025 113.645 77.1025 115.773 78.3304C117.901 79.5592 119.211 81.8298 119.211 84.2865C119.211 86.7431 117.901 89.0138 115.773 90.2425C113.645 91.4705 111.024 91.4705 108.896 90.2425C106.768 89.0138 105.457 86.7431 105.457 84.2865ZM112.372 113.478C106.159 113.485 100.174 111.135 95.6273 106.899C96.8366 103.423 99.0994 100.411 102.1 98.2812C105.101 96.1507 108.692 95.0085 112.372 95.0139C116.026 95.0785 119.574 96.2488 122.55 98.3707C125.526 100.493 127.789 103.466 129.041 106.899C124.494 111.085 118.552 113.43 112.372 113.478H112.372Z" fill="#424647"></path><path d="M112.372 132.353C104.964 132.338 97.8543 135.266 92.6046 140.492C87.3548 145.718 84.3958 152.815 84.3773 160.223C84.3594 167.63 87.284 174.742 92.5073 179.994C97.7314 185.246 104.827 188.208 112.235 188.23C119.642 188.251 126.755 185.33 132.01 180.108C137.264 174.887 140.229 167.792 140.254 160.385C140.289 152.966 137.368 145.838 132.136 140.577C126.903 135.317 119.791 132.358 112.372 132.353ZM112.372 148.499C114.205 148.505 115.961 149.239 117.251 150.542C118.541 151.844 119.26 153.606 119.248 155.439C119.237 157.272 118.495 159.025 117.189 160.311C115.882 161.596 114.117 162.309 112.284 162.291C110.451 162.272 108.701 161.525 107.42 160.213C106.139 158.902 105.433 157.135 105.458 155.301C105.472 153.483 106.21 151.744 107.506 150.468C108.803 149.193 110.553 148.484 112.372 148.499L112.372 148.499ZM112.372 184.492C106.159 184.5 100.174 182.149 95.6273 177.914C96.8366 174.438 99.0994 171.425 102.1 169.296C105.101 167.165 108.692 166.023 112.372 166.028C116.026 166.093 119.574 167.263 122.55 169.385C125.526 171.507 127.789 174.481 129.041 177.914C124.494 182.099 118.552 184.444 112.372 184.492H112.372Z" fill="#424647"></path></svg> 